<svg id="Layer_1" data-name="Layer 1" xmlns="http://www.w3.org/2000/svg" viewBox="0 0 240 60"><defs><style>.cls-1{fill:#8dc73f;}.cls-2{fill:#851f84;}.cls-3{fill:#f7941d;}.cls-4{fill:#f36523;}.cls-5{fill:#008a9e;}.cls-6{fill:#00bac6;}.cls-7{fill:#91d6da;}.cls-8{fill:#f499b8;}.cls-9{fill:#5b56a6;}.cls-10{fill:#004170;}</style></defs><title>teni</title><rect class="cls-1" width="20.17" height="20.17"/><rect class="cls-2" x="19.97" width="20.17" height="20.17"/><rect class="cls-3" x="40" width="20.17" height="20.17"/><rect class="cls-4" x="60" width="20.17" height="20.17"/><rect class="cls-5" x="79.83" width="20.17" height="20.17"/><rect class="cls-3" x="199.83" width="20.17" height="20.17"/><rect class="cls-4" x="219.83" width="20.17" height="20.17"/><rect class="cls-5" x="220" y="19.83" width="20.17" height="20.17"/><rect class="cls-6" x="100.01" width="20.17" height="20.17"/><rect class="cls-1" x="120" y="40" width="20.17" height="20.17"/><rect class="cls-2" x="139.97" y="40" width="20.17" height="20.17"/><rect class="cls-3" x="160" y="40" width="20.17" height="20.17"/><rect class="cls-4" x="180" y="40" width="20.17" height="20.17"/><rect class="cls-5" x="199.83" y="40" width="20.17" height="20.17"/><rect class="cls-6" x="220.01" y="40" width="20.17" height="20.17"/><rect class="cls-7" x="119.83" width="20.17" height="20.17"/><rect class="cls-8" x="139.83" width="20.17" height="20.17"/><rect class="cls-8" x="144.83" width="20.17" height="20.17"/><rect class="cls-8" x="149.83" width="20.17" height="20.17"/><rect class="cls-8" x="154.83" width="20.17" height="20.17"/><rect class="cls-8" x="159.83" width="20.17" height="20.17"/><rect class="cls-8" x="164.83" width="20.17" height="20.17"/><rect class="cls-9" x="160" width="20.17" height="20.17"/><rect class="cls-9" x="164.83" width="20.17" height="20.17"/><rect class="cls-9" x="169.83" width="20.17" height="20.17"/><rect class="cls-9" x="174.83" width="20.17" height="20.17"/><rect class="cls-10" x="179.83" width="20.17" height="20.17"/><rect class="cls-10" x="-0.17" y="20" width="20.17" height="20.17"/><rect class="cls-1" x="20" y="20" width="20.17" height="20.17"/><rect class="cls-2" x="39.97" y="20" width="20.17" height="20.17"/><rect class="cls-3" x="60" y="20" width="20.17" height="20.17"/><rect class="cls-4" x="80" y="20" width="20.17" height="20.17"/><rect class="cls-5" x="99.83" y="20" width="20.17" height="20.17"/><rect class="cls-6" x="120.01" y="20" width="20.17" height="20.17"/><rect class="cls-7" x="139.83" y="20" width="20.17" height="20.17"/><rect class="cls-8" x="160.17" y="20" width="20.17" height="20.17"/><rect class="cls-8" x="160" y="20" width="20.17" height="20.17"/><rect class="cls-8" x="169.83" y="20" width="20.17" height="20.17"/><rect class="cls-8" x="170" y="20" width="20.17" height="20.17"/><rect class="cls-8" x="179.83" y="20" width="20.17" height="20.17"/><rect class="cls-8" x="184.83" y="20" width="20.17" height="20.17"/><rect class="cls-9" x="180" y="20" width="20.17" height="20.17"/><rect class="cls-9" x="184.83" y="20" width="20.17" height="20.17"/><rect class="cls-9" x="189.83" y="20" width="20.17" height="20.17"/><rect class="cls-9" x="194.83" y="20" width="20.17" height="20.17"/><rect class="cls-10" x="199.83" y="20" width="20.17" height="20.17"/><rect class="cls-5" y="39.83" width="20.17" height="20.17"/><rect class="cls-6" x="20.18" y="39.83" width="20.17" height="20.17"/><rect class="cls-7" x="40" y="39.83" width="20.17" height="20.17"/><rect class="cls-8" x="60.33" y="39.83" width="20.17" height="20.17"/><rect class="cls-8" x="60.17" y="39.83" width="20.17" height="20.17"/><rect class="cls-8" x="70" y="39.83" width="20.17" height="20.17"/><rect class="cls-8" x="70.17" y="39.83" width="20.17" height="20.17"/><rect class="cls-8" x="80" y="39.83" width="20.17" height="20.17"/><rect class="cls-8" x="85" y="39.83" width="20.17" height="20.17"/><rect class="cls-9" x="80.17" y="39.83" width="20.17" height="20.17"/><rect class="cls-9" x="85" y="40" width="20.17" height="20.17"/><rect class="cls-9" x="90" y="40" width="20.17" height="20.17"/><rect class="cls-9" x="95" y="39.83" width="20.17" height="20.17"/><rect class="cls-10" x="100" y="39.83" width="20.17" height="20.17"/></svg>